<svg id="Layer_1" data-name="Layer 1" xmlns="http://www.w3.org/2000/svg" viewBox="0 0 96 96"><path d="M83.72,94H12.28A10.29,10.29,0,0,1,2,83.72V12.28A10.29,10.29,0,0,1,12.28,2H83.72A10.29,10.29,0,0,1,94,12.28V83.72A10.29,10.29,0,0,1,83.72,94ZM12.28,4A8.28,8.28,0,0,0,4,12.28V83.72A8.28,8.28,0,0,0,12.28,92H83.72A8.28,8.28,0,0,0,92,83.72V12.28A8.28,8.28,0,0,0,83.72,4Z"/><path d="M44.5,46H13a1,1,0,0,1-1-1V13a1,1,0,0,1,1-1H44.5a1,1,0,0,1,1,1V45A1,1,0,0,1,44.5,46ZM14,44H43.5V14H14Z"/><path d="M83,46H51.5a1,1,0,0,1-1-1V13a1,1,0,0,1,1-1H83a1,1,0,0,1,1,1V45A1,1,0,0,1,83,46ZM52.5,44H82V14H52.5Z"/><path d="M44.5,84H13a1,1,0,0,1-1-1V51a1,1,0,0,1,1-1H44.5a1,1,0,0,1,1,1V83A1,1,0,0,1,44.5,84ZM14,82H43.5V52H14Z"/><path d="M83,84H51.5a1,1,0,0,1-1-1V51a1,1,0,0,1,1-1H83a1,1,0,0,1,1,1V83A1,1,0,0,1,83,84ZM52.5,82H82V52H52.5Z"/><path d="M37.68,30H19.82a1,1,0,0,1,0-2H37.68a1,1,0,1,1,0,2Z"/><path d="M76.18,30H58.32a1,1,0,1,1,0-2H76.18a1,1,0,0,1,0,2Z"/><path d="M28.75,38.93a1,1,0,0,1-1-1V20.07a1,1,0,0,1,2,0V37.93A1,1,0,0,1,28.75,38.93Z"/><path d="M21.71,75a1,1,0,0,1-.71-.29,1,1,0,0,1,0-1.42L35.08,59.25a1,1,0,0,1,1.42,1.42L22.42,74.75A1,1,0,0,1,21.71,75Z"/><path d="M35.79,75a1,1,0,0,1-.71-.29L21,60.67a1,1,0,0,1,1.42-1.42L36.5,73.33a1,1,0,0,1,0,1.42A1,1,0,0,1,35.79,75Z"/><path d="M76.18,66.16H58.32a1,1,0,1,1,0-2H76.18a1,1,0,0,1,0,2Z"/><path d="M76.18,69.84H58.32a1,1,0,1,1,0-2H76.18a1,1,0,0,1,0,2Z"/></svg>