<svg id="Layer_1" data-name="Layer 1" xmlns="http://www.w3.org/2000/svg" viewBox="0 0 96 96"><path d="M78,50.13H18a1,1,0,0,1-.9-.56,1,1,0,0,1,.12-1l4.18-5.31a6.36,6.36,0,0,1,5-2.45H69.56a6.36,6.36,0,0,1,5,2.45l4.17,5.31A1,1,0,0,1,78,50.13Zm-57.94-2H75.94L73,44.45h0a4.37,4.37,0,0,0-3.48-1.69H26.44A4.39,4.39,0,0,0,23,44.44Z"/><path d="M63.84,35.54H32.16a4.47,4.47,0,0,1-4.47-4.47V14.6a4.47,4.47,0,0,1,4.47-4.47H63.84a4.47,4.47,0,0,1,4.47,4.47V31.07A4.47,4.47,0,0,1,63.84,35.54ZM32.16,12.13a2.47,2.47,0,0,0-2.47,2.47V31.07a2.47,2.47,0,0,0,2.47,2.47H63.84a2.47,2.47,0,0,0,2.47-2.47V14.6a2.47,2.47,0,0,0-2.47-2.47Z"/><path d="M56.67,42.77H39.33a1,1,0,0,1-1-1V34.54a1,1,0,0,1,1-1H56.67a1,1,0,0,1,1,1v7.23A1,1,0,0,1,56.67,42.77Zm-16.34-2H55.67V35.54H40.33Z"/><path d="M40.49,24.28c-1.17,0-3.35,0-3.35-2.33a1,1,0,0,1,2,0,.55.55,0,0,0,0,.22,4.64,4.64,0,0,0,1.32.11,4,4,0,0,0,1.32-.13.71.71,0,0,0,0-.2,1,1,0,0,1,2,0C43.83,24.28,41.65,24.28,40.49,24.28Z"/><path d="M55.51,24.28c-1.16,0-3.34,0-3.34-2.33a1,1,0,0,1,2,0,.55.55,0,0,0,0,.22,4.6,4.6,0,0,0,1.31.11,4.08,4.08,0,0,0,1.33-.13s0-.06,0-.2a1,1,0,0,1,2,0C58.86,24.28,56.68,24.28,55.51,24.28Z"/><path d="M52.53,12.13H43.47a1,1,0,0,1-1-1,5.53,5.53,0,0,1,11.06,0A1,1,0,0,1,52.53,12.13Zm-7.91-2h6.76a3.53,3.53,0,0,0-6.76,0Z"/><path d="M67.36,28.82a1,1,0,0,1-1-1v-10a1,1,0,0,1,1-1,6,6,0,1,1,0,12Zm1-9.84v7.71a4,4,0,0,0,0-7.71Z"/><path d="M28.64,28.82a6,6,0,1,1,0-12,1,1,0,0,1,1,1v10A1,1,0,0,1,28.64,28.82Zm-1-9.84a4,4,0,0,0,0,7.71Z"/><path d="M48,7.61a1,1,0,0,1-1-1V3a1,1,0,0,1,2,0V6.61A1,1,0,0,1,48,7.61Z"/><path d="M76.94,94H19.06a5.63,5.63,0,0,1-5.59-5.23L11.1,54.13a5.61,5.61,0,0,1,5.6-6H79.3a5.61,5.61,0,0,1,5.6,6L82.53,88.77A5.62,5.62,0,0,1,76.94,94ZM16.7,50.14A3.6,3.6,0,0,0,13.1,54l2.36,34.65A3.62,3.62,0,0,0,19.06,92H76.94a3.62,3.62,0,0,0,3.6-3.36L82.9,54a3.6,3.6,0,0,0-3.6-3.85Z"/><path d="M90.57,94H5.43a1,1,0,0,1,0-2H90.57a1,1,0,0,1,0,2Z"/><path d="M48,78.7a7.63,7.63,0,1,1,7.63-7.63A7.64,7.64,0,0,1,48,78.7Zm0-13.26a5.63,5.63,0,1,0,5.63,5.63A5.64,5.64,0,0,0,48,65.44Z"/></svg>