<?xml version="1.0" ?><svg id="Layer_1" style="enable-background:new 0 0 512 512;" version="1.1" viewBox="0 0 512 512" xml:space="preserve" xmlns="http://www.w3.org/2000/svg" xmlns:xlink="http://www.w3.org/1999/xlink"><style type="text/css">
	.st0{fill:#D22D33;}
	.st1{fill:#E7EBEC;}
</style><g id="XMLID_608_"><g id="XMLID_594_"><path class="st0" d="M182.2,241.7c-4.1,0-7.8,0.6-11,1.8s-6,2.9-8.3,5.2v-0.9c0-7.1,1.5-12.4,4.6-16    c3-3.6,7.1-5.4,12.1-5.4c2.7,0,5.1,0.2,7.1,0.6c2.1,0.4,4.5,1.1,7.4,1.9l3.5-15c-3.3-1.3-6.3-2.2-9-2.8c-2.7-0.6-5.7-0.9-9.1-0.9    c-10.9,0-19.8,3.4-26.7,10.1c-6.9,6.7-10.4,15.9-10.4,27.6v17.9c0,11.1,3,19.8,9,26.2c6,6.4,13.9,9.6,23.6,9.6    c9.1,0,16.6-2.8,22.4-8.5c5.8-5.6,8.7-12.8,8.7-21.6c0-8.9-2.1-16-6.2-21.6C195.6,244.5,189.8,241.7,182.2,241.7z M182.5,281.7    c-2,2.7-4.5,4.1-7.6,4.1c-3.8,0-6.8-1.7-8.9-5.2c-2.1-3.4-3.2-8.4-3.2-14.8v-4c1.2-1.4,2.8-2.5,4.9-3.3c2.1-0.8,4.6-1.2,7.5-1.2    c3,0,5.5,1.2,7.4,3.7c1.9,2.5,2.8,6,2.8,10.4C185.5,275.6,184.5,278.9,182.5,281.7z" id="XMLID_605_"/><path class="st0" d="M246.2,210.4c-9.3,0-16.8,3-22.4,9c-5.6,6-8.4,14.3-8.4,24.9v23.5c0,10.6,2.8,18.9,8.5,24.9    c5.6,6,13.1,9,22.5,9c9.3,0,16.7-3,22.4-9c5.6-6,8.5-14.3,8.5-24.9v-23.5c0-10.6-2.8-18.9-8.5-24.9    C263,213.4,255.5,210.4,246.2,210.4z M256.6,269c0,5.5-0.9,9.7-2.7,12.5c-1.8,2.8-4.3,4.2-7.6,4.2c-3.3,0-5.9-1.4-7.7-4.2    c-1.8-2.8-2.7-7-2.7-12.5v-26.2c0-5.4,0.9-9.5,2.7-12.4c1.8-2.8,4.3-4.3,7.6-4.3c3.2,0,5.8,1.4,7.6,4.3c1.8,2.8,2.8,7,2.8,12.4    V269z" id="XMLID_602_"/><polygon class="st0" id="XMLID_601_" points="344.3,219.6 301,288.9 310.6,293.7 353.9,224.4   "/><path class="st0" d="M364.5,265.5c-3.4-3.5-8.3-5.2-14.7-5.2c-6.3,0-11.2,1.7-14.6,5.2c-3.5,3.5-5.2,7.8-5.2,13.1    v4.7c0,5.3,1.7,9.7,5.2,13.1c3.5,3.5,8.4,5.2,14.7,5.2c6.3,0,11.1-1.7,14.5-5.2c3.4-3.4,5.1-7.8,5.1-13.1v-4.7    C369.6,273.3,367.9,269,364.5,265.5z M356.5,283.3c0,2.3-0.4,4-1.3,5.3c-0.9,1.3-2.6,1.9-5.1,1.9c-1.9,0-3.5-0.7-4.8-2.1    c-1.3-1.4-2-3.1-2-5.1v-4.7c0-2,0.6-3.7,1.7-5.1c1.1-1.4,2.8-2.1,4.9-2.1c2.1,0,3.7,0.7,4.8,2.1c1.2,1.4,1.7,3.1,1.7,5.1V283.3z" id="XMLID_598_"/><path class="st0" d="M322.3,246.5c3.4-3.4,5.1-7.8,5.1-13.1v-4.7c0-5.3-1.7-9.7-5.1-13.1s-8.3-5.2-14.7-5.2    c-6.3,0-11.2,1.7-14.6,5.2c-3.4,3.5-5.1,7.9-5.1,13.1v4.7c0,5.2,1.7,9.6,5.2,13c3.4,3.5,8.3,5.2,14.7,5.2    C314.1,251.6,318.9,249.9,322.3,246.5z M301.1,233.4v-4.7c0-2,0.6-3.7,1.7-5.2c1.1-1.4,2.7-2.1,4.8-2.1c2.1,0,3.7,0.7,4.9,2.1    c1.1,1.4,1.7,3.1,1.7,5.2v4.7c0,2-0.6,3.7-1.7,5.1c-1.1,1.4-2.7,2-4.8,2c-2.2,0-3.8-0.7-4.9-2    C301.7,237.1,301.1,235.4,301.1,233.4z" id="XMLID_595_"/></g><g id="XMLID_592_"><g id="XMLID_579_"><path class="st1" d="M256,506c-66.8,0-129.6-26-176.8-73.2C32,385.6,6,322.8,6,256S32,126.4,79.2,79.2     C126.4,32,189.2,6,256,6s129.6,26,176.8,73.2C480,126.4,506,189.2,506,256s-26,129.6-73.2,176.8C385.6,480,322.8,506,256,506z      M256,51.5C143.2,51.5,51.5,143.2,51.5,256S143.2,460.5,256,460.5S460.5,368.8,460.5,256S368.8,51.5,256,51.5z" id="XMLID_585_"/></g><g id="XMLID_572_"><path class="st0" d="M256,506c-48.9,0-96.3-14.1-137-40.9l24.9-38c33.3,21.9,72,33.4,112.1,33.4     c40,0,78.8-11.6,112.1-33.4c34.6-22.7,61.2-54.8,77-92.9c10.3-24.8,15.5-51.2,15.5-78.3c0-16.2-1.9-32.2-5.6-47.8     c-10.5-43.7-35.6-83.3-70.8-111.7C347.4,67,303.1,51.5,256,51.5V6c29,0,57.4,4.9,84.4,14.6c26.1,9.4,50.4,23,72.1,40.5     c43,34.6,73.8,83.1,86.6,136.5c4.5,19,6.9,38.7,6.9,58.4c0,33.1-6.4,65.3-19,95.7c-19.3,46.5-51.8,85.8-94,113.5     C352.3,491.9,304.9,506,256,506z" id="XMLID_584_"/></g></g></g></svg>