<?xml version="1.0" ?><svg viewBox="0 0 22.176 22.176" xmlns="http://www.w3.org/2000/svg"><g data-name="Layer 2" id="Layer_2"><g data-name="Layer 1" id="Layer_1-2"><path d="M17.722,8.717a.337.337,0,0,1,0-.673A.337.337,0,0,1,17.722,8.717Zm0,2.624a.337.337,0,0,0,0,.673A.337.337,0,0,0,17.722,11.341Zm0-1.648a.336.336,0,0,0,0,.672A.336.336,0,0,0,17.722,9.693Zm0-4.056a1.923,1.923,0,0,1,0-3.845A1.923,1.923,0,0,1,17.724,5.637Zm0-3.173a1.251,1.251,0,0,0,0,2.5A1.251,1.251,0,0,0,17.724,2.464Zm4.452,6.078V13.7a1.243,1.243,0,0,1-1.814,1.095V20.7a1.5,1.5,0,0,1-2.64.934,1.5,1.5,0,0,1-2.638-.934V9.96a1.22,1.22,0,0,0-.357-.865l-4.34-4.36A1.242,1.242,0,0,1,12.144,2.98l2.964,2.965A1.55,1.55,0,0,0,16.2,6.4h3.833A2.149,2.149,0,0,1,22.176,8.542ZM19.69,13.665H15.756V20.7a.816.816,0,0,0,1.631,0V14.839a.336.336,0,0,1,.672,0V20.7a.816.816,0,0,0,1.631,0ZM21.5,8.542a1.477,1.477,0,0,0-1.475-1.475H16.2a2.223,2.223,0,0,1-1.563-.648L11.669,3.455a.57.57,0,0,0-.806.8L15.2,8.621a1.889,1.889,0,0,1,.553,1.339v3.033h3.937V8.856a.336.336,0,0,1,.672,0V13.7a.57.57,0,0,0,1.139,0ZM13.776,22.176H.336A.336.336,0,0,1,0,21.84V4.816a.334.334,0,0,1,.1-.237L4.578.1A.337.337,0,0,1,4.816,0H19.31a.336.336,0,0,1,0,.672H5.152V4.816a.336.336,0,0,1-.336.336H.672V21.5h13.1A.336.336,0,0,1,13.776,22.176ZM1.147,4.48H4.48V1.147Zm9.942,3.137H8.541a.336.336,0,0,0,0,.671h2.547A.336.336,0,0,0,11.089,7.617Zm-7.617.671H6.3a.336.336,0,0,0,0-.671H3.472A.336.336,0,0,0,3.472,8.288Zm9.857,2.017H10.782a.336.336,0,0,0,0,.672h2.547A.336.336,0,0,0,13.329,10.305Zm-9.857.672H8.541a.336.336,0,0,0,0-.672H3.472A.336.336,0,0,0,3.472,10.977Zm9.857,2.016H8.542a.336.336,0,0,0,0,.672h4.787A.336.336,0,0,0,13.329,12.993Zm-9.857.672H6.3a.336.336,0,0,0,0-.672H3.472A.336.336,0,0,0,3.472,13.665Zm10.192,2.352a.336.336,0,0,0-.335-.336H10.782a.336.336,0,1,0,0,.672h2.547A.336.336,0,0,0,13.664,16.017Zm-10.192.336H8.541a.336.336,0,0,0,0-.672H3.472A.336.336,0,0,0,3.472,16.353Zm0,2.688h7.169a.336.336,0,0,0,0-.672H3.472A.336.336,0,0,0,3.472,19.041Z" data-name="professional publications" id="professional_publications"/></g></g></svg>