<?xml version="1.0" ?><svg viewBox="0 0 64 64" xmlns="http://www.w3.org/2000/svg"><g id="outling-cut"><path d="M60.229,57.224l1.413-3.742a1,1,0,0,0-.583-1.289l-.588-.221L50.793,39.39a1.037,1.037,0,0,0-1.586,0l-2.092,2.72-6.276-9.655a1.04,1.04,0,0,0-1.678,0L36.844,36.02a1,1,0,0,0,1.677,1.09L40,34.835,43.357,40H42a1.006,1.006,0,0,0-.555.168l-2.517,1.678L36.3,40.531l.3-.462a1,1,0,0,0-.663-1.53h-.007a1,1,0,0,0-1.008.44l-6.3,9.686L27,48.1V40a1,1,0,0,0-2,0v8.239L17,51V49h2a1,1,0,0,0,.958-1.287l-3-10a1,1,0,0,0-1.916,0l-3,10A1,1,0,0,0,13,49h2v2.687l-.358.124-1.978-.747a1,1,0,0,0-.707,1.872l2.315.874a1,1,0,0,0,.68.009l11.113-3.832a.993.993,0,0,0,.164-.033L37.466,53.83a1,1,0,0,0,.652,0L49.41,49.937l9.848,3.715a.988.988,0,0,0,.139.112l-.686,1.819L49.718,52.19a1,1,0,0,0-.679-.009L37.792,56.058,26.521,52.17a1,1,0,0,0-.652,0L14.581,56.063l-10-3.774.705-1.871,2.984,1.126a1,1,0,1,0,.707-1.871L7,48.926V46H9a1,1,0,0,0,.958-1.287l-3-10a1,1,0,0,0-1.916,0l-3,10A1,1,0,0,0,3,46H5v2.183a.988.988,0,0,0-.706.035,1,1,0,0,0-.523.558L2.358,52.518a1,1,0,0,0,.582,1.289l11.272,4.255a1.02,1.02,0,0,0,.353.064.989.989,0,0,0,.327-.055l11.3-3.9,11.271,3.888a1,1,0,0,0,.652,0L49.35,54.189l9.591,3.618A1,1,0,0,0,60.229,57.224ZM16,41.48,17.656,47H14.344ZM51.269,48.5l-.534-.822L51.414,47h2.709l2.792,3.631ZM50,41.64,52.584,45H51a1,1,0,0,0-.707.293l-.672.672-1.35-2.076ZM37.792,51.827l-7.218-2.49L35.2,42.219,38.553,43.9a1,1,0,0,0,1-.063L42.3,42h2.354l3.962,6.094ZM6,38.48,7.656,44H4.344Z"/><path d="M36,17a10,10,0,0,0-20,0,16.6,16.6,0,0,0,5.567,12.4l3.769,3.35a1,1,0,0,0,1.328,0l3.769-3.35A16.6,16.6,0,0,0,36,17ZM29.1,27.9,26,30.662,22.9,27.9A14.6,14.6,0,0,1,18,17a8,8,0,0,1,16,0A14.6,14.6,0,0,1,29.1,27.9Z"/><path d="M26,11a6.007,6.007,0,0,0-3.829,1.381,1,1,0,1,0,1.277,1.538A4,4,0,1,1,22,17a1,1,0,0,0-2,0,6,6,0,1,0,6-6Z"/><path d="M26.38,35.08a1.017,1.017,0,0,0-1.09.21.933.933,0,0,0-.21.33.943.943,0,0,0,0,.76.933.933,0,0,0,.21.33,1.7,1.7,0,0,0,.149.12.782.782,0,0,0,.181.09.636.636,0,0,0,.18.06A1.487,1.487,0,0,0,26,37a.99.99,0,0,0,1-1,1,1,0,0,0-.08-.38.933.933,0,0,0-.21-.33A1.043,1.043,0,0,0,26.38,35.08Z"/><path d="M15.29,33.29A1.047,1.047,0,0,0,15,34a1.5,1.5,0,0,0,.02.2.636.636,0,0,0,.06.18.757.757,0,0,0,.09.18,1.576,1.576,0,0,0,.12.15,1,1,0,1,0,0-1.42Z"/><path d="M5.17,31.56a1.576,1.576,0,0,0,.12.15,1.014,1.014,0,0,0,1.42,0,1,1,0,0,0-1.42-1.42,1.576,1.576,0,0,0-.12.15.757.757,0,0,0-.09.18.636.636,0,0,0-.06.18,1.01,1.01,0,0,0,0,.4.636.636,0,0,0,.06.18A.757.757,0,0,0,5.17,31.56Z"/><path d="M39.439,29.83a.782.782,0,0,0,.181.09.636.636,0,0,0,.18.06A1.487,1.487,0,0,0,40,30a1,1,0,0,0,.71-1.71,1.038,1.038,0,0,0-.91-.27.636.636,0,0,0-.18.06.782.782,0,0,0-.181.09,1.7,1.7,0,0,0-.149.12.933.933,0,0,0-.21.33A1,1,0,0,0,39,29a1.028,1.028,0,0,0,.29.71Z"/><path d="M49.17,36.56a1.576,1.576,0,0,0,.12.15A1.014,1.014,0,1,0,49,36a1.355,1.355,0,0,0,.02.2.636.636,0,0,0,.06.18A.757.757,0,0,0,49.17,36.56Z"/></g></svg>